<svg xmlns="http://www.w3.org/2000/svg" viewBox="0 0 24 24" width="24" height="24">
  <path fill="#000" d="M22.46 6c-.77.35-1.6.58-2.46.69a4.26 4.26 0 0 0 1.88-2.36 8.47 8.47 0 0 1-2.7 1.03A4.24 4.24 0 0 0 12.06 9v.54A12.02 12.02 0 0 1 3.15 4.7a4.24 4.24 0 0 0 1.31 5.66c-.66-.02-1.28-.2-1.82-.5v.05c0 2.05 1.46 3.76 3.4 4.14-.36.1-.75.15-1.15.15-.28 0-.56-.03-.83-.08a4.25 4.25 0 0 0 3.96 2.95A8.5 8.5 0 0 1 2 19.54a12 12 0 0 0 6.5 1.9c7.8 0 12.07-6.46 12.07-12.07v-.55A8.6 8.6 0 0 0 22.46 6z"/>
</svg>
